<mxfile host="app.diagrams.net" modified="2023-11-08T11:26:41.604Z" agent="Mozilla/5.0 (Windows NT 10.0; Win64; x64) AppleWebKit/537.36 (KHTML, like Gecko) Chrome/119.0.0.0 Safari/537.36" version="22.0.8" etag="ymV1orfrKi-Vbayjiqo-" type="github">
  <diagram name="Pagina-1" id="nD6h4oOb6FYK4VQJzvWM">
    <mxGraphModel>
      <root>
        <mxCell id="0" />
        <mxCell id="1" parent="0" />
      </root>
    </mxGraphModel>
  </diagram>
</mxfile>
